<mxfile host="65bd71144e" modified="2021-02-05T15:56:32.661Z" agent="5.0 (Windows NT 10.0; Win64; x64) AppleWebKit/537.36 (KHTML, like Gecko) Code/1.52.1 Chrome/83.0.4103.122 Electron/9.3.5 Safari/537.36" version="13.10.0" etag="Yct_2zUU43842Yqf3A7n" type="embed">
    <diagram id="e8KKhT13B6LM5iRRvsPV" name="Page-1">
        <mxGraphModel dx="1143" dy="790" grid="1" gridSize="10" guides="1" tooltips="1" connect="1" arrows="1" fold="1" page="1" pageScale="1" pageWidth="1169" pageHeight="827" background="#F1FAEE" math="0" shadow="0">
            <root>
                <mxCell id="0"/>
                <mxCell id="1" parent="0"/>
                <mxCell id="3" value="" style="rounded=1;whiteSpace=wrap;html=1;sketch=0;strokeColor=#457B9D;fillColor=#A8DADC;fontColor=#1D3557;dashed=1;strokeWidth=3;" vertex="1" parent="1">
                    <mxGeometry x="460" y="770" width="550" height="310" as="geometry"/>
                </mxCell>
                <mxCell id="4" value="Client" style="outlineConnect=0;fontColor=#232F3E;gradientColor=none;strokeColor=#232F3E;fillColor=#ffffff;dashed=0;verticalLabelPosition=bottom;verticalAlign=top;align=center;html=1;fontSize=12;fontStyle=0;aspect=fixed;shape=mxgraph.aws4.resourceIcon;resIcon=mxgraph.aws4.client;rounded=0;sketch=0;" vertex="1" parent="1">
                    <mxGeometry x="80" y="800" width="40" height="40" as="geometry"/>
                </mxCell>
                <mxCell id="5" value="Client" style="outlineConnect=0;fontColor=#232F3E;gradientColor=none;strokeColor=#232F3E;fillColor=#ffffff;dashed=0;verticalLabelPosition=bottom;verticalAlign=top;align=center;html=1;fontSize=12;fontStyle=0;aspect=fixed;shape=mxgraph.aws4.resourceIcon;resIcon=mxgraph.aws4.client;rounded=0;sketch=0;" vertex="1" parent="1">
                    <mxGeometry x="80" y="874" width="40" height="40" as="geometry"/>
                </mxCell>
                <mxCell id="6" value="Client" style="outlineConnect=0;fontColor=#232F3E;gradientColor=none;strokeColor=#232F3E;fillColor=#ffffff;dashed=0;verticalLabelPosition=bottom;verticalAlign=top;align=center;html=1;fontSize=12;fontStyle=0;aspect=fixed;shape=mxgraph.aws4.resourceIcon;resIcon=mxgraph.aws4.client;rounded=0;sketch=0;" vertex="1" parent="1">
                    <mxGeometry x="80" y="960" width="40" height="40" as="geometry"/>
                </mxCell>
                <mxCell id="7" value="" style="endArrow=classic;html=1;strokeColor=#457B9D;fillColor=#A8DADC;fontColor=#1D3557;strokeWidth=2;" edge="1" parent="1">
                    <mxGeometry width="50" height="50" relative="1" as="geometry">
                        <mxPoint x="140" y="820" as="sourcePoint"/>
                        <mxPoint x="440" y="820" as="targetPoint"/>
                        <Array as="points">
                            <mxPoint x="260" y="820"/>
                        </Array>
                    </mxGeometry>
                </mxCell>
                <mxCell id="8" value="set hello &quot;1111&quot;" style="edgeLabel;html=1;align=center;verticalAlign=middle;resizable=0;points=[];fontColor=#1D3557;labelBackgroundColor=#FFFFFF;fontSize=18;" vertex="1" connectable="0" parent="7">
                    <mxGeometry x="-0.1267" y="-3" relative="1" as="geometry">
                        <mxPoint as="offset"/>
                    </mxGeometry>
                </mxCell>
                <mxCell id="9" value="" style="endArrow=classic;html=1;strokeColor=#457B9D;fillColor=#A8DADC;fontColor=#1D3557;strokeWidth=2;" edge="1" parent="1">
                    <mxGeometry width="50" height="50" relative="1" as="geometry">
                        <mxPoint x="140" y="899.5" as="sourcePoint"/>
                        <mxPoint x="440" y="899.5" as="targetPoint"/>
                        <Array as="points">
                            <mxPoint x="260" y="899.5"/>
                        </Array>
                    </mxGeometry>
                </mxCell>
                <mxCell id="10" value="&lt;span style=&quot;background-color: rgb(255 , 255 , 255)&quot;&gt;set tsing &quot;2222&quot;&lt;/span&gt;" style="edgeLabel;html=1;align=center;verticalAlign=middle;resizable=0;points=[];fontSize=18;fontColor=#1D3557;" vertex="1" connectable="0" parent="9">
                    <mxGeometry x="-0.0067" y="5" relative="1" as="geometry">
                        <mxPoint x="-19" y="-0.5" as="offset"/>
                    </mxGeometry>
                </mxCell>
                <mxCell id="11" value="" style="endArrow=classic;html=1;strokeColor=#457B9D;fillColor=#A8DADC;fontColor=#1D3557;strokeWidth=2;" edge="1" parent="1">
                    <mxGeometry width="50" height="50" relative="1" as="geometry">
                        <mxPoint x="140" y="980" as="sourcePoint"/>
                        <mxPoint x="440" y="980" as="targetPoint"/>
                        <Array as="points">
                            <mxPoint x="260" y="980"/>
                        </Array>
                    </mxGeometry>
                </mxCell>
                <mxCell id="12" value="&lt;span style=&quot;background-color: rgb(255 , 255 , 255)&quot;&gt;set woniu &quot;3333&quot;&lt;/span&gt;" style="edgeLabel;html=1;align=center;verticalAlign=middle;resizable=0;points=[];fontSize=18;fontColor=#1D3557;" vertex="1" connectable="0" parent="11">
                    <mxGeometry x="-0.04" y="-2" relative="1" as="geometry">
                        <mxPoint x="-14" as="offset"/>
                    </mxGeometry>
                </mxCell>
                <mxCell id="13" value="" style="aspect=fixed;html=1;points=[];align=center;image;fontSize=12;image=img/lib/mscae/Cache_including_Redis.svg;rounded=0;dashed=1;sketch=0;strokeColor=#457B9D;strokeWidth=3;fillColor=#A8DADC;" vertex="1" parent="1">
                    <mxGeometry x="540" y="875" width="50" height="50" as="geometry"/>
                </mxCell>
                <mxCell id="14" value="&lt;b&gt;Redis Server&lt;/b&gt;" style="text;html=1;strokeColor=none;fillColor=none;align=center;verticalAlign=middle;whiteSpace=wrap;rounded=0;dashed=1;sketch=0;fontColor=#1D3557;" vertex="1" parent="1">
                    <mxGeometry x="502.5" y="950" width="125" height="20" as="geometry"/>
                </mxCell>
                <mxCell id="22" value="&lt;span style=&quot;color: rgb(29 , 53 , 87) ; font-size: 18px ; background-color: rgb(255 , 255 , 255)&quot;&gt;set hello &quot;1111&quot;&lt;br&gt;&lt;/span&gt;&lt;span style=&quot;color: rgb(29 , 53 , 87) ; font-size: 18px ; background-color: rgb(255 , 255 , 255)&quot;&gt;set tsing &quot;2222&quot;&lt;br&gt;&lt;/span&gt;&lt;span style=&quot;color: rgb(29 , 53 , 87) ; font-size: 18px ; background-color: rgb(255 , 255 , 255)&quot;&gt;set woniu &quot;3333&quot;&lt;/span&gt;&lt;span style=&quot;color: rgb(29 , 53 , 87) ; font-size: 18px ; background-color: rgb(255 , 255 , 255)&quot;&gt;&lt;br&gt;&lt;/span&gt;" style="shape=note;whiteSpace=wrap;html=1;backgroundOutline=1;darkOpacity=0.05;rounded=0;sketch=0;strokeColor=#006EAF;fillColor=#1ba1e2;fontColor=#ffffff;" vertex="1" parent="1">
                    <mxGeometry x="700" y="875" width="240" height="105" as="geometry"/>
                </mxCell>
                <mxCell id="23" value="&lt;b&gt;&lt;font style=&quot;font-size: 17px&quot;&gt;AOF 文件&lt;/font&gt;&lt;/b&gt;" style="text;html=1;strokeColor=none;fillColor=none;align=center;verticalAlign=middle;whiteSpace=wrap;rounded=0;sketch=0;fontColor=#1D3557;strokeWidth=3;" vertex="1" parent="1">
                    <mxGeometry x="760" y="854" width="90" height="20" as="geometry"/>
                </mxCell>
                <mxCell id="25" value="" style="shape=flexArrow;endArrow=classic;html=1;strokeColor=#B09500;fillColor=#e3c800;fontColor=#1D3557;" edge="1" parent="1">
                    <mxGeometry width="50" height="50" relative="1" as="geometry">
                        <mxPoint x="610" y="914" as="sourcePoint"/>
                        <mxPoint x="690" y="914" as="targetPoint"/>
                    </mxGeometry>
                </mxCell>
            </root>
        </mxGraphModel>
    </diagram>
</mxfile>